<svg xmlns="http://www.w3.org/2000/svg" xmlns:xlink="http://www.w3.org/1999/xlink" width="1200" height="1200" viewBox="0 0 1200 1200"><g transform="translate(600 600) scale(0.69 0.69) rotate(90) translate(-600 -600)" style="fill:#000000"><svg fill="#000000" xmlns="http://www.w3.org/2000/svg" xmlns:xlink="http://www.w3.org/1999/xlink" xml:space="preserve" style="shape-rendering:geometricPrecision;text-rendering:geometricPrecision;image-rendering:optimizeQuality;" viewBox="0 0 8.4666 8.4666" x="0px" y="0px" fill-rule="evenodd" clip-rule="evenodd"><defs><style type="text/css">
   
    .fil0 {fill:#000000}
   
  </style></defs><g><path class="fil0" d="M0.6219 5.1922c0,0 -0.0321,-1.365 0.3293,-1.5979 0.3613,-0.2328 0.9153,-0.1285 1.4934,0.1405 0.0536,-0.0963 0.1071,-0.1927 0.1606,-0.2891 0,0 -0.9233,-0.8028 -1.7383,-0.5218 0,0 -0.4582,0.2132 -0.3779,0.9639 0,0 -0.1728,1.1964 -0.1889,1.3088 -0.0161,0.1124 0.3218,-0.0044 0.3218,-0.0044z"></path><path class="fil0" d="M3.2451 3.3134c0,0 -0.2489,0.55 -0.0642,0.5941 0.1847,0.0442 2.7707,0.4094 5.1555,-0.2891 0,0 -0.2889,-0.2387 -1.4853,-0.0902 -1.1964,0.1485 -3.3202,0.3693 -3.606,-0.2148z"></path><path class="fil0" d="M1.4123 4.0839c-0.0422,0.3109 -0.0683,1.0052 0.1567,1.2367 0.0528,-0.0007 0.1057,-0.0012 0.1584,-0.0019 0,0 -0.0551,-0.3505 0.4879,-0.2853 0.4828,0.1027 3.354,0.1346 4.7338,-0.0282 0.3416,0.1441 0.9582,1.0669 1.0118,0.4538 0.0441,-0.5059 -0.542,-0.8994 -0.8311,-0.9677 -0.4694,-0.0231 -3.4366,0.1539 -4.4484,0.044 0,0 -0.6906,-0.0765 -0.8351,-0.1609 -0.1446,-0.0843 -0.1487,-0.281 -0.1487,-0.281 -0.0951,-0.0032 -0.1902,-0.0063 -0.2853,-0.0095zm4.6093 0.9167c0,-0.1364 0,-0.2728 0,-0.4092 0.0322,-0.0016 0.0643,-0.0032 0.0965,-0.0048 0,0.1356 0,0.2711 0,0.4067 -0.0322,0.0024 -0.0643,0.0049 -0.0965,0.0073zm-0.1292 -0.4028c0,0.137 0,0.274 0,0.411 -0.0322,0.0018 -0.0643,0.0038 -0.0965,0.0056 0,-0.1373 0,-0.2746 0,-0.412 0.0322,-0.0015 0.0643,-0.003 0.0965,-0.0046zm-3.1029 0.4038c0,-0.1217 0,-0.2435 0,-0.3653 0.0322,0.0037 0.0643,0.0074 0.0965,0.0111 0,0.1197 0,0.2392 0,0.3589 -0.0322,-0.0016 -0.0643,-0.0031 -0.0965,-0.0047zm-0.1292 -0.3833c0,0.125 0,0.25 0,0.375 -0.0322,-0.0028 -0.0643,-0.0055 -0.0965,-0.0084 0,-0.1275 0,-0.2552 0,-0.3827 0.0322,0.0054 0.0643,0.0107 0.0965,0.0161z"></path><path class="fil0" d="M2.5108 3.7377c0.0428,-0.0823 0.0857,-0.1646 0.1285,-0.2469 0,0 0.3887,0.2002 0.4369,0.2203 0,0 -0.0209,0.0848 0.0033,0.1738 0,0 -0.1045,-0.0165 -0.5687,-0.1472z"></path></g></svg></g></svg>